<svg id="a" data-name="Layer 1" xmlns="http://www.w3.org/2000/svg" viewBox="0 0 500 500"><defs><style>.e{fill:#ffbf00}</style></defs><g id="b" data-name="Berry"><path id="c" data-name="&amp;lt;Path&amp;gt;" d="M401.61 228.86c6.99 39.05-42.66 117.03-110.34 173.28l-27.13 22.55c-67.67 56.25-136.32 31.52-152.56-54.97l-6.48-34.54c-16.23-86.49-4.75-178.23 25.52-203.87 30.27-25.64 73.42-26 95.87-.81 22.46 25.19 68.19 41.65 101.62 36.58 33.43-5.07 66.5 22.73 73.49 61.78z" style="fill:#f24236"/><path id="d" data-name="&amp;lt;Path&amp;gt;" d="M377.11 170.79c-1.16-2.29-5.64-4.89-9.95-5.76l-71.55-14.48c-4.31-.87-6.32-4.85-4.46-8.84l31.37-67.3c1.86-3.99 1.24-10.14-1.38-13.68l-9.79-13.22c-2.62-3.54-5.98-3.04-7.47 1.1l-31.16 86.56c-1.49 4.14-5.9 5.86-9.8 3.82l-72.49-37.86c-3.9-2.04-9.31-2.75-12.02-1.57s2.1 8.37 5.39 11.29l26.18 23.24c3.29 2.92 6.44 6.81 7 8.64s-5.45 6.38-9.43 8.25l-18.56 8.73c-3.98 1.87-7.98 5.46-8.89 7.98-.91 2.51 7.08 5.04 11.47 5.28l53.46 2.89c4.39.24 9.06.97 10.36 1.62s2.45 7.46 2.63 11.86l1.15 28.35c.18 4.4 1.49 9.51 2.91 11.36s8.1-2.42 10.94-5.78l19.43-22.97c2.84-3.36 6.02-6.51 7.06-7s6.97 1.69 10.9 3.68l31.68 16.09c3.92 1.99 9.17 3 11.67 2.25s.04-8.7-2.26-12.45l-9.52-15.51c-2.3-3.75-4.14-7.96-4.08-9.36s6.31-2.62 10.71-2.68l17.54-.23c4.4-.06 12.11-2.05 10.95-4.34z" style="fill:#2cf6b3"/><path class="e" d="M248.75 272.62c-1.87 5.2-13.65 20.12-18.85 18.25s-5.6-21.18-3.73-26.38c4.21-11.71 10.52-9.44 15.71-7.57s11.08 3.99 6.87 15.7zM206.75 362.72c-1.87 5.2-13.65 20.12-18.85 18.25s-5.6-21.18-3.73-26.38c4.21-11.71 10.52-9.44 15.71-7.57s11.08 3.99 6.87 15.7zM188.28 211.2c-1.28 5.37-11.31 21.52-16.69 20.25s-7.94-20.42-6.66-25.79c2.88-12.11 9.39-10.56 14.77-9.28s11.46 2.72 8.58 14.83zM298.39 250.83c-2.44 4.95-5 23.8-.05 26.24 4.95 2.44 19.13-10.67 21.57-15.63 5.5-11.16-.51-14.12-5.46-16.57s-10.56-5.21-16.07 5.96zM160.44 285.87c-.62 5.49-8.64 22.73-14.13 22.11-5.49-.62-10.34-19.32-9.72-24.8 1.4-12.37 8.05-11.61 13.54-10.99s11.7 1.32 10.31 13.69zM270.29 336.04c-3.02 4.62-7.83 23.02-3.21 26.04 4.62 3.02 20.28-8.29 23.3-12.92 6.81-10.42 1.2-14.08-3.43-17.1-4.62-3.02-9.86-6.44-16.67 3.98z"/></g></svg>